# xmcd CD database file
#
# Track frame offsets:
#	150
#	12011
#	26135
#	36893
#	46856
#	59814
#	70529
#	83127
#	92712
#	107244
#
# Disc length: 1618 seconds
#
# Revision: 0
# Processed by: cddbd v1.5.2PL0 Copyright (c) Steve Scherf et al.
# Submitted via: CDex 1.51
#
DISCID=7c06500a
DTITLE=Various Artist - Honky Tonk Outlaws
DYEAR=1900
DGENRE=Country
TTITLE0=johnny cash - doin my time
TTITLE1=david allen coe - ride me down easy
TTITLE2=patsy cline - honky tonk merry go round
TTITLE3=hank williams - honky tonk blues
TTITLE4=ronnie mcdowell - you made a wanted man of me
TTITLE5=george jones - who shot sam
TTITLE6=al dexter - pistol packin mama
TTITLE7=faron young - I've got five dollars and its's saturday night
TTITLE8=johnny paycheck - I'm the only hell (mama ever raised)
TTITLE9=moe brand - I cheated me right out of you
EXTD=
EXTT0=
EXTT1=
EXTT2=
EXTT3=
EXTT4=
EXTT5=
EXTT6=
EXTT7=
EXTT8=
EXTT9=
PLAYORDER=
